<mxfile host="app.diagrams.net" agent="Mozilla/5.0 (Windows NT 10.0; Win64; x64) AppleWebKit/537.36 (KHTML, like Gecko) Chrome/135.0.0.0 Safari/537.36" version="26.2.14" pages="2">
  <diagram id="C5RBs43oDa-KdzZeNtuy" name="Level 0">
    <mxGraphModel dx="1111" dy="439" grid="0" gridSize="10" guides="1" tooltips="1" connect="1" arrows="1" fold="1" page="0" pageScale="1" pageWidth="827" pageHeight="1169" math="0" shadow="0">
      <root>
        <mxCell id="WIyWlLk6GJQsqaUBKTNV-0" />
        <mxCell id="WIyWlLk6GJQsqaUBKTNV-1" parent="WIyWlLk6GJQsqaUBKTNV-0" />
        <mxCell id="aBu6ehMNbrsb8fg8pgl0-0" value="&lt;font style=&quot;font-size: 18px;&quot;&gt;Admin Super&lt;/font&gt;" style="rounded=1;whiteSpace=wrap;html=1;" parent="WIyWlLk6GJQsqaUBKTNV-1" vertex="1">
          <mxGeometry x="140" y="360" width="150" height="150" as="geometry" />
        </mxCell>
        <mxCell id="aBu6ehMNbrsb8fg8pgl0-1" value="&lt;font style=&quot;font-size: 18px;&quot;&gt;SIPERJA&lt;/font&gt;" style="ellipse;whiteSpace=wrap;html=1;" parent="WIyWlLk6GJQsqaUBKTNV-1" vertex="1">
          <mxGeometry x="500" y="360" width="170" height="150" as="geometry" />
        </mxCell>
        <mxCell id="aBu6ehMNbrsb8fg8pgl0-2" value="" style="endArrow=classic;html=1;rounded=0;exitX=1;exitY=0.25;exitDx=0;exitDy=0;entryX=0.051;entryY=0.248;entryDx=0;entryDy=0;entryPerimeter=0;" parent="WIyWlLk6GJQsqaUBKTNV-1" source="aBu6ehMNbrsb8fg8pgl0-0" target="aBu6ehMNbrsb8fg8pgl0-1" edge="1">
          <mxGeometry width="50" height="50" relative="1" as="geometry">
            <mxPoint x="390" y="630" as="sourcePoint" />
            <mxPoint x="440" y="580" as="targetPoint" />
          </mxGeometry>
        </mxCell>
        <mxCell id="aBu6ehMNbrsb8fg8pgl0-3" value="" style="endArrow=classic;html=1;rounded=0;exitX=0.018;exitY=0.676;exitDx=0;exitDy=0;exitPerimeter=0;entryX=0.972;entryY=0.676;entryDx=0;entryDy=0;entryPerimeter=0;" parent="WIyWlLk6GJQsqaUBKTNV-1" source="aBu6ehMNbrsb8fg8pgl0-1" target="aBu6ehMNbrsb8fg8pgl0-0" edge="1">
          <mxGeometry width="50" height="50" relative="1" as="geometry">
            <mxPoint x="390" y="630" as="sourcePoint" />
            <mxPoint x="360" y="580" as="targetPoint" />
          </mxGeometry>
        </mxCell>
        <mxCell id="aBu6ehMNbrsb8fg8pgl0-5" value="&lt;span style=&quot;font-size: 15px;&quot;&gt;Data Role&lt;/span&gt;&lt;div&gt;&lt;span style=&quot;font-size: 15px;&quot;&gt;Data User&lt;/span&gt;&lt;/div&gt;&lt;div&gt;&lt;span style=&quot;font-size: 15px;&quot;&gt;&lt;br&gt;&lt;/span&gt;&lt;/div&gt;" style="text;html=1;align=center;verticalAlign=middle;whiteSpace=wrap;rounded=0;" parent="WIyWlLk6GJQsqaUBKTNV-1" vertex="1">
          <mxGeometry x="330" y="314" width="160" height="66" as="geometry" />
        </mxCell>
        <mxCell id="aBu6ehMNbrsb8fg8pgl0-6" value="&lt;span style=&quot;font-size: 15px;&quot;&gt;Informasi Role&lt;/span&gt;&lt;div&gt;&lt;span style=&quot;font-size: 15px;&quot;&gt;Informasi User&lt;/span&gt;&lt;/div&gt;&lt;div&gt;&lt;span style=&quot;font-size: 15px;&quot;&gt;Laporan Rambu&lt;/span&gt;&lt;/div&gt;&lt;div&gt;&lt;span style=&quot;font-size: 15px;&quot;&gt;Informasi Rambu&lt;/span&gt;&lt;/div&gt;" style="text;html=1;align=center;verticalAlign=middle;whiteSpace=wrap;rounded=0;" parent="WIyWlLk6GJQsqaUBKTNV-1" vertex="1">
          <mxGeometry x="330" y="480" width="163" height="104" as="geometry" />
        </mxCell>
        <mxCell id="aJsum7RN5ESlgPJSQrR3-0" value="&lt;font style=&quot;font-size: 18px;&quot;&gt;Admin Rambu&lt;/font&gt;" style="rounded=1;whiteSpace=wrap;html=1;" parent="WIyWlLk6GJQsqaUBKTNV-1" vertex="1">
          <mxGeometry x="899" y="355" width="150" height="150" as="geometry" />
        </mxCell>
        <mxCell id="aJsum7RN5ESlgPJSQrR3-2" value="" style="endArrow=classic;html=1;rounded=0;exitX=0.916;exitY=0.238;exitDx=0;exitDy=0;entryX=0;entryY=0.25;entryDx=0;entryDy=0;exitPerimeter=0;" parent="WIyWlLk6GJQsqaUBKTNV-1" source="aBu6ehMNbrsb8fg8pgl0-1" target="aJsum7RN5ESlgPJSQrR3-0" edge="1">
          <mxGeometry width="50" height="50" relative="1" as="geometry">
            <mxPoint x="660" y="394" as="sourcePoint" />
            <mxPoint x="879" y="393" as="targetPoint" />
          </mxGeometry>
        </mxCell>
        <mxCell id="aJsum7RN5ESlgPJSQrR3-3" value="" style="endArrow=classic;html=1;rounded=0;exitX=0;exitY=0.75;exitDx=0;exitDy=0;" parent="WIyWlLk6GJQsqaUBKTNV-1" source="aJsum7RN5ESlgPJSQrR3-0" edge="1">
          <mxGeometry width="50" height="50" relative="1" as="geometry">
            <mxPoint x="884" y="464" as="sourcePoint" />
            <mxPoint x="653" y="468" as="targetPoint" />
          </mxGeometry>
        </mxCell>
        <mxCell id="aJsum7RN5ESlgPJSQrR3-4" value="&lt;div&gt;&lt;span style=&quot;font-size: 15px;&quot;&gt;Laporan Rambu&lt;/span&gt;&lt;/div&gt;&lt;div&gt;&lt;span style=&quot;font-size: 15px;&quot;&gt;Informasi Rambu&lt;/span&gt;&lt;/div&gt;" style="text;html=1;align=center;verticalAlign=middle;whiteSpace=wrap;rounded=0;" parent="WIyWlLk6GJQsqaUBKTNV-1" vertex="1">
          <mxGeometry x="696" y="489" width="163" height="104" as="geometry" />
        </mxCell>
        <mxCell id="aJsum7RN5ESlgPJSQrR3-5" value="&lt;span style=&quot;font-size: 15px; background-color: initial;&quot;&gt;Data Rambu&lt;/span&gt;" style="text;html=1;align=center;verticalAlign=middle;whiteSpace=wrap;rounded=0;" parent="WIyWlLk6GJQsqaUBKTNV-1" vertex="1">
          <mxGeometry x="713" y="324" width="160" height="66" as="geometry" />
        </mxCell>
      </root>
    </mxGraphModel>
  </diagram>
  <diagram id="wrSLxRUxpBzJUvEXyqeh" name="Level 1">
    <mxGraphModel dx="3052" dy="1132" grid="0" gridSize="10" guides="1" tooltips="1" connect="1" arrows="1" fold="1" page="0" pageScale="1" pageWidth="827" pageHeight="1169" math="0" shadow="0">
      <root>
        <mxCell id="0" />
        <mxCell id="1" parent="0" />
        <mxCell id="WwMhJ7izq82pFThKdnqK-1" value="&lt;font size=&quot;3&quot;&gt;Admin Rambu&lt;/font&gt;" style="rounded=1;whiteSpace=wrap;html=1;" parent="1" vertex="1">
          <mxGeometry x="-406" y="230" width="120" height="94" as="geometry" />
        </mxCell>
        <mxCell id="HvCVesEYO6FOzh01PV0A-4" style="edgeStyle=orthogonalEdgeStyle;rounded=0;orthogonalLoop=1;jettySize=auto;html=1;exitX=0.5;exitY=1;exitDx=0;exitDy=0;entryX=0;entryY=0.5;entryDx=0;entryDy=0;" parent="1" source="WwMhJ7izq82pFThKdnqK-2" target="WwMhJ7izq82pFThKdnqK-4" edge="1">
          <mxGeometry relative="1" as="geometry" />
        </mxCell>
        <mxCell id="HvCVesEYO6FOzh01PV0A-7" style="edgeStyle=orthogonalEdgeStyle;rounded=0;orthogonalLoop=1;jettySize=auto;html=1;exitX=0.25;exitY=0;exitDx=0;exitDy=0;entryX=0;entryY=0;entryDx=0;entryDy=0;" parent="1" source="WwMhJ7izq82pFThKdnqK-2" target="WwMhJ7izq82pFThKdnqK-5" edge="1">
          <mxGeometry relative="1" as="geometry">
            <Array as="points">
              <mxPoint x="-376" y="-209" />
            </Array>
          </mxGeometry>
        </mxCell>
        <mxCell id="WwMhJ7izq82pFThKdnqK-2" value="&lt;font size=&quot;3&quot;&gt;Admin Super&lt;/font&gt;" style="rounded=1;whiteSpace=wrap;html=1;" parent="1" vertex="1">
          <mxGeometry x="-406" y="-60" width="120" height="88" as="geometry" />
        </mxCell>
        <mxCell id="WwMhJ7izq82pFThKdnqK-3" value="&lt;font size=&quot;3&quot;&gt;Manage Role Data&lt;/font&gt;&lt;div&gt;&lt;font size=&quot;3&quot;&gt;2.0&lt;/font&gt;&lt;span style=&quot;color: rgba(0, 0, 0, 0); font-family: monospace; font-size: 0px; text-align: start; text-wrap-mode: nowrap; background-color: initial;&quot;&gt;%3CmxGraphModel%3E%3Croot%3E%3CmxCell%20id%3D%220%22%2F%3E%3CmxCell%20id%3D%221%22%20parent%3D%220%22%2F%3E%3CmxCell%20id%3D%222%22%20value%3D%22%26lt%3Bfont%20size%3D%26quot%3B3%26quot%3B%26gt%3BAdmin%20Rambu%26lt%3B%2Ffont%26gt%3B%22%20style%3D%22rounded%3D1%3BwhiteSpace%3Dwrap%3Bhtml%3D1%3B%22%20vertex%3D%221%22%20parent%3D%221%22%3E%3CmxGeometry%20x%3D%22-232%22%20y%3D%2213%22%20width%3D%22120%22%20height%3D%2260%22%20as%3D%22geometry%22%2F%3E%3C%2FmxCell%3E%3C%2Froot%3E%3C%2FmxGraphModel%3E&lt;/span&gt;&lt;/div&gt;" style="ellipse;whiteSpace=wrap;html=1;" parent="1" vertex="1">
          <mxGeometry x="-142" y="-75" width="133" height="107" as="geometry" />
        </mxCell>
        <mxCell id="WwMhJ7izq82pFThKdnqK-4" value="&lt;font size=&quot;3&quot;&gt;Login&lt;/font&gt;&lt;div&gt;&lt;font size=&quot;3&quot;&gt;1.0&lt;/font&gt;&lt;/div&gt;" style="ellipse;whiteSpace=wrap;html=1;" parent="1" vertex="1">
          <mxGeometry x="-129" y="83" width="120" height="80" as="geometry" />
        </mxCell>
        <mxCell id="HvCVesEYO6FOzh01PV0A-8" style="edgeStyle=orthogonalEdgeStyle;rounded=0;orthogonalLoop=1;jettySize=auto;html=1;exitX=0;exitY=1;exitDx=0;exitDy=0;entryX=0.75;entryY=0;entryDx=0;entryDy=0;" parent="1" source="WwMhJ7izq82pFThKdnqK-5" target="WwMhJ7izq82pFThKdnqK-2" edge="1">
          <mxGeometry relative="1" as="geometry" />
        </mxCell>
        <mxCell id="HvCVesEYO6FOzh01PV0A-23" style="edgeStyle=orthogonalEdgeStyle;rounded=0;orthogonalLoop=1;jettySize=auto;html=1;exitX=1;exitY=0;exitDx=0;exitDy=0;entryX=0.75;entryY=0;entryDx=0;entryDy=0;" parent="1" source="WwMhJ7izq82pFThKdnqK-5" target="WwMhJ7izq82pFThKdnqK-11" edge="1">
          <mxGeometry relative="1" as="geometry" />
        </mxCell>
        <mxCell id="WwMhJ7izq82pFThKdnqK-5" value="&lt;font size=&quot;3&quot;&gt;Manage User Data&lt;/font&gt;&lt;div&gt;&lt;font size=&quot;3&quot;&gt;3.0&lt;/font&gt;&lt;span style=&quot;color: rgba(0, 0, 0, 0); font-family: monospace; font-size: 0px; text-align: start; text-wrap-mode: nowrap; background-color: initial;&quot;&gt;%3CmxGraphModel%3E%3Croot%3E%3CmxCell%20id%3D%220%22%2F%3E%3CmxCell%20id%3D%221%22%20parent%3D%220%22%2F%3E%3CmxCell%20id%3D%222%22%20value%3D%22%26lt%3Bfont%20size%3D%26quot%3B3%26quot%3B%26gt%3BAdmin%20Rambu%26lt%3B%2Ffont%26gt%3B%22%20style%3D%22rounded%3D1%3BwhiteSpace%3Dwrap%3Bhtml%3D1%3B%22%20vertex%3D%221%22%20parent%3D%221%22%3E%3CmxGeometry%20x%3D%22-232%22%20y%3D%2213%22%20width%3D%22120%22%20height%3D%2260%22%20as%3D%22geometry%22%2F%3E%3C%2FmxCell%3E%3C%2Froot%3E%3C%2FmxGraphModel%3E&lt;/span&gt;&lt;/div&gt;" style="ellipse;whiteSpace=wrap;html=1;" parent="1" vertex="1">
          <mxGeometry x="-142" y="-225" width="134" height="103" as="geometry" />
        </mxCell>
        <mxCell id="HvCVesEYO6FOzh01PV0A-15" style="edgeStyle=orthogonalEdgeStyle;rounded=0;orthogonalLoop=1;jettySize=auto;html=1;exitX=0.5;exitY=0;exitDx=0;exitDy=0;entryX=0;entryY=0.5;entryDx=0;entryDy=0;" parent="1" source="WwMhJ7izq82pFThKdnqK-6" target="WwMhJ7izq82pFThKdnqK-2" edge="1">
          <mxGeometry relative="1" as="geometry" />
        </mxCell>
        <mxCell id="WwMhJ7izq82pFThKdnqK-6" value="&lt;font size=&quot;3&quot;&gt;Manage Rambu Data&lt;/font&gt;&lt;div&gt;&lt;font size=&quot;3&quot;&gt;4.0&lt;/font&gt;&lt;span style=&quot;color: rgba(0, 0, 0, 0); font-family: monospace; font-size: 0px; text-align: start; text-wrap-mode: nowrap; background-color: initial;&quot;&gt;%3CmxGraphModel%3E%3Croot%3E%3CmxCell%20id%3D%220%22%2F%3E%3CmxCell%20id%3D%221%22%20parent%3D%220%22%2F%3E%3CmxCell%20id%3D%222%22%20value%3D%22%26lt%3Bfont%20size%3D%26quot%3B3%26quot%3B%26gt%3BAdmin%20Rambu%26lt%3B%2Ffont%26gt%3B%22%20style%3D%22rounded%3D1%3BwhiteSpace%3Dwrap%3Bhtml%3D1%3B%22%20vertex%3D%221%22%20parent%3D%221%22%3E%3CmxGeometry%20x%3D%22-232%22%20y%3D%2213%22%20width%3D%22120%22%20height%3D%2260%22%20as%3D%22geometry%22%2F%3E%3C%2FmxCell%3E%3C%2Froot%3E%3C%2FmxGraphModel%3E&lt;/span&gt;&lt;/div&gt;" style="ellipse;whiteSpace=wrap;html=1;" parent="1" vertex="1">
          <mxGeometry x="-663" y="231" width="135" height="93" as="geometry" />
        </mxCell>
        <mxCell id="HvCVesEYO6FOzh01PV0A-24" style="edgeStyle=orthogonalEdgeStyle;rounded=0;orthogonalLoop=1;jettySize=auto;html=1;exitX=0.25;exitY=0;exitDx=0;exitDy=0;entryX=1;entryY=1;entryDx=0;entryDy=0;" parent="1" source="WwMhJ7izq82pFThKdnqK-11" target="WwMhJ7izq82pFThKdnqK-5" edge="1">
          <mxGeometry relative="1" as="geometry">
            <Array as="points">
              <mxPoint x="370" y="-138" />
            </Array>
          </mxGeometry>
        </mxCell>
        <mxCell id="HvCVesEYO6FOzh01PV0A-25" style="edgeStyle=orthogonalEdgeStyle;rounded=0;orthogonalLoop=1;jettySize=auto;html=1;exitX=0;exitY=0.75;exitDx=0;exitDy=0;entryX=0.5;entryY=1;entryDx=0;entryDy=0;" parent="1" source="WwMhJ7izq82pFThKdnqK-11" target="WwMhJ7izq82pFThKdnqK-4" edge="1">
          <mxGeometry relative="1" as="geometry" />
        </mxCell>
        <mxCell id="WwMhJ7izq82pFThKdnqK-11" value="&lt;font style=&quot;font-size: 18px;&quot;&gt;User&lt;/font&gt;" style="shape=partialRectangle;whiteSpace=wrap;html=1;left=0;right=0;fillColor=none;" parent="1" vertex="1">
          <mxGeometry x="339" y="319" width="117" height="60" as="geometry" />
        </mxCell>
        <mxCell id="HvCVesEYO6FOzh01PV0A-36" style="edgeStyle=orthogonalEdgeStyle;rounded=0;orthogonalLoop=1;jettySize=auto;html=1;exitX=0.5;exitY=0;exitDx=0;exitDy=0;entryX=0.5;entryY=1;entryDx=0;entryDy=0;" parent="1" source="WwMhJ7izq82pFThKdnqK-38" target="WwMhJ7izq82pFThKdnqK-5" edge="1">
          <mxGeometry relative="1" as="geometry" />
        </mxCell>
        <mxCell id="WwMhJ7izq82pFThKdnqK-38" value="&lt;font style=&quot;font-size: 18px;&quot;&gt;Role&lt;/font&gt;" style="shape=partialRectangle;whiteSpace=wrap;html=1;left=0;right=0;fillColor=none;" parent="1" vertex="1">
          <mxGeometry x="127" y="-55" width="173" height="78" as="geometry" />
        </mxCell>
        <mxCell id="WwMhJ7izq82pFThKdnqK-42" value="&lt;font style=&quot;font-size: 18px;&quot;&gt;Rambu&lt;/font&gt;" style="shape=partialRectangle;whiteSpace=wrap;html=1;left=0;right=0;fillColor=none;" parent="1" vertex="1">
          <mxGeometry x="-929" y="247.5" width="120" height="60" as="geometry" />
        </mxCell>
        <mxCell id="HvCVesEYO6FOzh01PV0A-3" style="edgeStyle=orthogonalEdgeStyle;rounded=0;orthogonalLoop=1;jettySize=auto;html=1;exitX=0.5;exitY=0;exitDx=0;exitDy=0;entryX=0.017;entryY=0.737;entryDx=0;entryDy=0;entryPerimeter=0;" parent="1" source="WwMhJ7izq82pFThKdnqK-1" target="WwMhJ7izq82pFThKdnqK-4" edge="1">
          <mxGeometry relative="1" as="geometry">
            <Array as="points">
              <mxPoint x="-346" y="142" />
            </Array>
          </mxGeometry>
        </mxCell>
        <mxCell id="HvCVesEYO6FOzh01PV0A-5" value="" style="endArrow=classic;html=1;rounded=0;exitX=1;exitY=0.75;exitDx=0;exitDy=0;entryX=0.05;entryY=0.766;entryDx=0;entryDy=0;entryPerimeter=0;" parent="1" source="WwMhJ7izq82pFThKdnqK-2" target="WwMhJ7izq82pFThKdnqK-3" edge="1">
          <mxGeometry width="50" height="50" relative="1" as="geometry">
            <mxPoint x="-42" y="132" as="sourcePoint" />
            <mxPoint x="8" y="82" as="targetPoint" />
          </mxGeometry>
        </mxCell>
        <mxCell id="HvCVesEYO6FOzh01PV0A-6" value="" style="endArrow=classic;html=1;rounded=0;exitX=0;exitY=0.346;exitDx=0;exitDy=0;exitPerimeter=0;entryX=1;entryY=0.25;entryDx=0;entryDy=0;" parent="1" source="WwMhJ7izq82pFThKdnqK-3" target="WwMhJ7izq82pFThKdnqK-2" edge="1">
          <mxGeometry width="50" height="50" relative="1" as="geometry">
            <mxPoint x="-42" y="132" as="sourcePoint" />
            <mxPoint x="-172" y="-60" as="targetPoint" />
          </mxGeometry>
        </mxCell>
        <mxCell id="HvCVesEYO6FOzh01PV0A-10" value="" style="endArrow=classic;html=1;rounded=0;entryX=0;entryY=0.75;entryDx=0;entryDy=0;exitX=0.89;exitY=0.766;exitDx=0;exitDy=0;exitPerimeter=0;" parent="1" source="WwMhJ7izq82pFThKdnqK-3" target="WwMhJ7izq82pFThKdnqK-38" edge="1">
          <mxGeometry width="50" height="50" relative="1" as="geometry">
            <mxPoint x="-19" y="5" as="sourcePoint" />
            <mxPoint x="-125" y="17" as="targetPoint" />
          </mxGeometry>
        </mxCell>
        <mxCell id="HvCVesEYO6FOzh01PV0A-11" value="" style="endArrow=classic;html=1;rounded=0;exitX=0;exitY=0.25;exitDx=0;exitDy=0;entryX=0.99;entryY=0.361;entryDx=0;entryDy=0;entryPerimeter=0;" parent="1" source="WwMhJ7izq82pFThKdnqK-38" target="WwMhJ7izq82pFThKdnqK-3" edge="1">
          <mxGeometry width="50" height="50" relative="1" as="geometry">
            <mxPoint x="-132" y="-28" as="sourcePoint" />
            <mxPoint x="-12" y="-35" as="targetPoint" />
          </mxGeometry>
        </mxCell>
        <mxCell id="HvCVesEYO6FOzh01PV0A-13" value="" style="endArrow=classic;html=1;rounded=0;entryX=0.946;entryY=0.351;entryDx=0;entryDy=0;entryPerimeter=0;exitX=-0.036;exitY=0.376;exitDx=0;exitDy=0;exitPerimeter=0;" parent="1" source="WwMhJ7izq82pFThKdnqK-1" target="WwMhJ7izq82pFThKdnqK-6" edge="1">
          <mxGeometry width="50" height="50" relative="1" as="geometry">
            <mxPoint x="-42" y="132" as="sourcePoint" />
            <mxPoint x="8" y="82" as="targetPoint" />
          </mxGeometry>
        </mxCell>
        <mxCell id="HvCVesEYO6FOzh01PV0A-14" value="" style="endArrow=classic;html=1;rounded=0;entryX=0;entryY=0.75;entryDx=0;entryDy=0;exitX=0.97;exitY=0.71;exitDx=0;exitDy=0;exitPerimeter=0;" parent="1" source="WwMhJ7izq82pFThKdnqK-6" target="WwMhJ7izq82pFThKdnqK-1" edge="1">
          <mxGeometry width="50" height="50" relative="1" as="geometry">
            <mxPoint x="-42" y="132" as="sourcePoint" />
            <mxPoint x="8" y="82" as="targetPoint" />
          </mxGeometry>
        </mxCell>
        <mxCell id="HvCVesEYO6FOzh01PV0A-16" value="" style="endArrow=classic;html=1;rounded=0;exitX=1;exitY=0.25;exitDx=0;exitDy=0;entryX=0.069;entryY=0.351;entryDx=0;entryDy=0;entryPerimeter=0;" parent="1" source="WwMhJ7izq82pFThKdnqK-42" target="WwMhJ7izq82pFThKdnqK-6" edge="1">
          <mxGeometry width="50" height="50" relative="1" as="geometry">
            <mxPoint x="-370" y="132" as="sourcePoint" />
            <mxPoint x="-320" y="82" as="targetPoint" />
          </mxGeometry>
        </mxCell>
        <mxCell id="HvCVesEYO6FOzh01PV0A-17" value="" style="endArrow=classic;html=1;rounded=0;entryX=1;entryY=0.75;entryDx=0;entryDy=0;exitX=0.02;exitY=0.674;exitDx=0;exitDy=0;exitPerimeter=0;" parent="1" source="WwMhJ7izq82pFThKdnqK-6" target="WwMhJ7izq82pFThKdnqK-42" edge="1">
          <mxGeometry width="50" height="50" relative="1" as="geometry">
            <mxPoint x="-370" y="132" as="sourcePoint" />
            <mxPoint x="-320" y="82" as="targetPoint" />
          </mxGeometry>
        </mxCell>
        <mxCell id="HvCVesEYO6FOzh01PV0A-18" value="&lt;font style=&quot;font-size: 16px;&quot;&gt;Informasi Rambu&lt;/font&gt;" style="text;html=1;align=center;verticalAlign=middle;whiteSpace=wrap;rounded=0;" parent="1" vertex="1">
          <mxGeometry x="-629" y="-60" width="151" height="35" as="geometry" />
        </mxCell>
        <mxCell id="HvCVesEYO6FOzh01PV0A-19" value="&lt;font style=&quot;font-size: 16px;&quot;&gt;Informasi Rambu&lt;/font&gt;" style="text;html=1;align=center;verticalAlign=middle;whiteSpace=wrap;rounded=0;" parent="1" vertex="1">
          <mxGeometry x="-551" y="310" width="151" height="35" as="geometry" />
        </mxCell>
        <mxCell id="HvCVesEYO6FOzh01PV0A-20" value="&lt;font style=&quot;font-size: 16px;&quot;&gt;Data Rambu&lt;/font&gt;" style="text;html=1;align=center;verticalAlign=middle;whiteSpace=wrap;rounded=0;" parent="1" vertex="1">
          <mxGeometry x="-546" y="218" width="151" height="35" as="geometry" />
        </mxCell>
        <mxCell id="HvCVesEYO6FOzh01PV0A-21" value="&lt;font style=&quot;font-size: 16px;&quot;&gt;Data Rambu&lt;/font&gt;" style="text;html=1;align=center;verticalAlign=middle;whiteSpace=wrap;rounded=0;" parent="1" vertex="1">
          <mxGeometry x="-814" y="310" width="151" height="35" as="geometry" />
        </mxCell>
        <mxCell id="HvCVesEYO6FOzh01PV0A-22" value="&lt;font style=&quot;font-size: 16px;&quot;&gt;Informasi Rambu&lt;/font&gt;" style="text;html=1;align=center;verticalAlign=middle;whiteSpace=wrap;rounded=0;" parent="1" vertex="1">
          <mxGeometry x="-802" y="212.5" width="151" height="35" as="geometry" />
        </mxCell>
        <mxCell id="HvCVesEYO6FOzh01PV0A-26" value="&lt;font style=&quot;font-size: 16px;&quot;&gt;Informasi User&lt;/font&gt;" style="text;html=1;align=center;verticalAlign=middle;whiteSpace=wrap;rounded=0;" parent="1" vertex="1">
          <mxGeometry x="-35" y="312" width="151" height="35" as="geometry" />
        </mxCell>
        <mxCell id="HvCVesEYO6FOzh01PV0A-27" value="&lt;font style=&quot;font-size: 16px;&quot;&gt;Informasi User&lt;/font&gt;" style="text;html=1;align=center;verticalAlign=middle;whiteSpace=wrap;rounded=0;" parent="1" vertex="1">
          <mxGeometry x="-297" y="-125" width="151" height="35" as="geometry" />
        </mxCell>
        <mxCell id="HvCVesEYO6FOzh01PV0A-28" value="&lt;font style=&quot;font-size: 16px;&quot;&gt;Informasi User&lt;/font&gt;" style="text;html=1;align=center;verticalAlign=middle;whiteSpace=wrap;rounded=0;" parent="1" vertex="1">
          <mxGeometry x="105" y="-175" width="151" height="35" as="geometry" />
        </mxCell>
        <mxCell id="HvCVesEYO6FOzh01PV0A-29" value="&lt;font style=&quot;font-size: 16px;&quot;&gt;Data User&lt;/font&gt;" style="text;html=1;align=center;verticalAlign=middle;whiteSpace=wrap;rounded=0;" parent="1" vertex="1">
          <mxGeometry x="-354" y="-245" width="151" height="35" as="geometry" />
        </mxCell>
        <mxCell id="HvCVesEYO6FOzh01PV0A-30" value="&lt;font style=&quot;font-size: 16px;&quot;&gt;Data User&lt;/font&gt;" style="text;html=1;align=center;verticalAlign=middle;whiteSpace=wrap;rounded=0;" parent="1" vertex="1">
          <mxGeometry x="133" y="-255" width="151" height="35" as="geometry" />
        </mxCell>
        <mxCell id="HvCVesEYO6FOzh01PV0A-31" value="&lt;font style=&quot;font-size: 16px;&quot;&gt;Data Role&lt;/font&gt;" style="text;html=1;align=center;verticalAlign=middle;whiteSpace=wrap;rounded=0;" parent="1" vertex="1">
          <mxGeometry x="-284" y="23" width="151" height="35" as="geometry" />
        </mxCell>
        <mxCell id="HvCVesEYO6FOzh01PV0A-32" value="&lt;font style=&quot;font-size: 16px;&quot;&gt;Data Role&lt;/font&gt;" style="text;html=1;align=center;verticalAlign=middle;whiteSpace=wrap;rounded=0;" parent="1" vertex="1">
          <mxGeometry x="-24" y="13" width="151" height="35" as="geometry" />
        </mxCell>
        <mxCell id="HvCVesEYO6FOzh01PV0A-33" value="&lt;font style=&quot;font-size: 16px;&quot;&gt;Informasi Role&lt;/font&gt;" style="text;html=1;align=center;verticalAlign=middle;whiteSpace=wrap;rounded=0;" parent="1" vertex="1">
          <mxGeometry x="-289" y="-82" width="151" height="35" as="geometry" />
        </mxCell>
        <mxCell id="HvCVesEYO6FOzh01PV0A-34" value="&lt;font style=&quot;font-size: 16px;&quot;&gt;Informasi Role&lt;/font&gt;" style="text;html=1;align=center;verticalAlign=middle;whiteSpace=wrap;rounded=0;" parent="1" vertex="1">
          <mxGeometry x="-24" y="-82" width="151" height="35" as="geometry" />
        </mxCell>
        <mxCell id="HvCVesEYO6FOzh01PV0A-37" value="&lt;font style=&quot;font-size: 16px;&quot;&gt;Data Role&lt;/font&gt;" style="text;html=1;align=center;verticalAlign=middle;whiteSpace=wrap;rounded=0;" parent="1" vertex="1">
          <mxGeometry x="13" y="-122" width="151" height="35" as="geometry" />
        </mxCell>
      </root>
    </mxGraphModel>
  </diagram>
</mxfile>
